<svg width="0" height="0" class="hidden">
  <symbol  xmlns="http://www.w3.org/2000/svg" viewBox="0 0 16 16" id="question">
    <g clip-path="url(#clip0_49_3811)">
      <path fill-rule="evenodd" clip-rule="evenodd" d="M8 16C12.4183 16 16 12.4183 16 8C16 3.58172 12.4183 0 8 0C3.58172 0 0 3.58172 0 8C0 12.4183 3.58172 16 8 16ZM6.16229 5.99162C6.56051 5.47149 7.06032 5.21143 7.66171 5.21143C7.98679 5.21143 8.25905 5.31302 8.47848 5.51619C8.6979 5.71937 8.80762 5.96724 8.80762 6.25981C8.80762 6.77994 8.53943 7.22692 8.00305 7.60076C7.77549 7.77143 7.60889 7.90146 7.50324 7.99086C7.40571 8.07213 7.27568 8.21029 7.11314 8.40533C6.95873 8.59225 6.85714 8.80356 6.80838 9.03924C6.76775 9.26679 6.77181 9.53092 6.82057 9.83162L8.10057 9.81943C8.10057 9.7219 8.09244 9.64064 8.07619 9.57562C8.06806 9.5106 8.07619 9.43746 8.10057 9.35619C8.13308 9.27492 8.15746 9.2099 8.17371 9.16114C8.18997 9.11238 8.22248 9.05549 8.27124 8.99048C8.32813 8.91733 8.37283 8.86451 8.40533 8.832C8.43784 8.79136 8.4866 8.73854 8.55162 8.67352C8.62476 8.60851 8.68165 8.55975 8.72229 8.52724C8.77105 8.4866 8.832 8.43378 8.90514 8.36876C8.98641 8.30375 9.05143 8.25092 9.10019 8.21029C9.48216 7.90146 9.77879 7.58451 9.9901 7.25943C10.2014 6.92622 10.307 6.49143 10.307 5.95505C10.307 5.34552 10.0754 4.83759 9.61219 4.43124C9.16521 4.01676 8.54349 3.80952 7.74705 3.80952C7.22692 3.80952 6.75149 3.9233 6.32076 4.15086C5.89003 4.37841 5.56089 4.67911 5.33333 5.05295L6.16229 5.99162ZM6.82057 10.941C6.64178 11.1197 6.55238 11.327 6.55238 11.5627C6.55238 11.8309 6.64178 12.0625 6.82057 12.2575C7.00749 12.4444 7.23911 12.5379 7.51543 12.5379C7.77549 12.5379 7.99086 12.4444 8.16152 12.2575C8.33219 12.0625 8.41752 11.8309 8.41752 11.5627C8.41752 11.327 8.32813 11.1197 8.14933 10.941C7.97867 10.754 7.76736 10.6606 7.51543 10.6606C7.23911 10.6606 7.00749 10.754 6.82057 10.941Z" ></path>
    </g>
    <defs>
      <clipPath id="clip0_49_3811">
        <rect width="16" height="16" ></rect>
      </clipPath>
    </defs>
  </symbol>
  <symbol  xmlns="http://www.w3.org/2000/svg" viewBox="0 0 800 800" id="apple-store">

    <path fill="#18BFFB" d="M638.4,0H161.6C72.3,0,0,72.3,0,161.6v476.9C0,727.7,72.3,800,161.6,800h476.9  c89.2,0,161.6-72.3,161.6-161.6V161.6C800,72.3,727.7,0,638.4,0z"/>
    <path fill="#FFFFFF" d="M396.6,183.8l16.2-28c10-17.5,32.3-23.4,49.8-13.4s23.4,32.3,13.4,49.8L319.9,462.4h112.9  c36.6,0,57.1,43,41.2,72.8H143c-20.2,0-36.4-16.2-36.4-36.4c0-20.2,16.2-36.4,36.4-36.4h92.8l118.8-205.9l-37.1-64.4  c-10-17.5-4.1-39.6,13.4-49.8c17.5-10,39.6-4.1,49.8,13.4L396.6,183.8L396.6,183.8z M256.2,572.7l-35,60.7  c-10,17.5-32.3,23.4-49.8,13.4S148,614.5,158,597l26-45C213.4,542.9,237.3,549.9,256.2,572.7L256.2,572.7z M557.6,462.6h94.7  c20.2,0,36.4,16.2,36.4,36.4c0,20.2-16.2,36.4-36.4,36.4h-52.6l35.5,61.6c10,17.5,4.1,39.6-13.4,49.8c-17.5,10-39.6,4.1-49.8-13.4  c-59.8-103.7-104.7-181.3-134.5-233c-30.5-52.6-8.7-105.4,12.8-123.3C474.2,318.1,509.9,380,557.6,462.6L557.6,462.6z"/>

  </symbol>
  <symbol  xmlns="http://www.w3.org/2000/svg" viewBox="0 0 14 14" id="payment">
    <path d="M2.40625 1.55566C1.76807 1.55566 1.15603 1.80918 0.704774 2.26044C0.253515 2.7117 0 3.32374 0 3.96191V5.05566H14V3.96191C14 3.32374 13.7465 2.7117 13.2952 2.26044C12.844 1.80918 12.2319 1.55566 11.5938 1.55566H2.40625ZM14 5.93066H0V9.64941C0 10.2876 0.253515 10.8996 0.704774 11.3509C1.15603 11.8021 1.76807 12.0557 2.40625 12.0557H11.5938C12.2319 12.0557 12.844 11.8021 13.2952 11.3509C13.7465 10.8996 14 10.2876 14 9.64941V5.93066ZM10.0625 9.43066H11.8125C11.9285 9.43066 12.0398 9.47676 12.1219 9.5588C12.2039 9.64085 12.25 9.75213 12.25 9.86816C12.25 9.9842 12.2039 10.0955 12.1219 10.1775C12.0398 10.2596 11.9285 10.3057 11.8125 10.3057H10.0625C9.94647 10.3057 9.83519 10.2596 9.75314 10.1775C9.67109 10.0955 9.625 9.9842 9.625 9.86816C9.625 9.75213 9.67109 9.64085 9.75314 9.5588C9.83519 9.47676 9.94647 9.43066 10.0625 9.43066Z" ></path>
  </symbol>
  <symbol  xmlns="http://www.w3.org/2000/svg" viewBox="0 0 18 18" id="cricket">
    <g clip-path="url(#clip0_104_1145)">
      <path d="M11.124 14.193L12.3897 12.924L16.2047 16.722L14.9121 18L11.124 14.193ZM14.8582 0C15.6915 0 16.4906 0.331874 17.0798 0.922614C17.669 1.51335 18 2.31457 18 3.15C18 3.98543 17.669 4.78665 17.0798 5.37739C16.4906 5.96813 15.6915 6.3 14.8582 6.3C14.025 6.3 13.2259 5.96813 12.6367 5.37739C12.0475 4.78665 11.7165 3.98543 11.7165 3.15C11.7165 2.31457 12.0475 1.51335 12.6367 0.922614C13.2259 0.331874 14.025 0 14.8582 0ZM0.262561 4.599L2.80289 2.052C2.97412 1.88326 3.20461 1.7887 3.44471 1.7887C3.6848 1.7887 3.91529 1.88326 4.08652 2.052L11.6896 9.693C12.0396 10.044 12.0396 10.611 11.6896 10.962L9.14923 13.5C9.06641 13.5855 8.96733 13.6534 8.85786 13.6998C8.74839 13.7462 8.63075 13.7701 8.51191 13.7701C8.39306 13.7701 8.27542 13.7462 8.16595 13.6998C8.05648 13.6534 7.9574 13.5855 7.87458 13.5L0.262561 5.877C-0.0875203 5.517 -0.0875203 4.95 0.262561 4.599Z" fill="#156246"></path>
    </g>
    <defs>
      <clipPath id="clip0_104_1145">
        <rect width="18" height="18" ></rect>
      </clipPath>
    </defs>
  </symbol>
  <symbol  xmlns="http://www.w3.org/2000/svg" viewBox="0 0 40 45" id="apple">
    <g filter="url(#filter0_d_65_3769)">
      <path d="M31.616 21.6386C31.5974 18.3599 33.0341 15.8888 35.9354 14.0668C34.3127 11.663 31.8578 10.341 28.6217 10.0862C25.5577 9.83617 22.2054 11.9322 20.978 11.9322C19.6807 11.9322 16.7144 10.1727 14.3803 10.1727C9.56344 10.2496 4.44434 14.1437 4.44434 22.0665C4.44434 24.4077 4.85814 26.8259 5.68575 29.3162C6.79233 32.5949 10.7816 40.6282 14.9429 40.4984C17.1189 40.4456 18.6579 38.9024 21.4894 38.9024C24.2373 38.9024 25.66 40.4984 28.087 40.4984C32.2855 40.4359 35.8936 33.1333 36.9443 29.845C31.3138 27.0999 31.616 21.8069 31.616 21.6386ZM26.7294 6.97571C29.0867 4.08159 28.8728 1.44708 28.8031 0.5C26.7201 0.624995 24.3116 1.96629 22.94 3.61526C21.429 5.38443 20.5409 7.57184 20.7315 10.0381C22.9819 10.216 25.037 9.0189 26.7294 6.97571Z" fill="url(#paint0_linear_65_3769)"></path>
    </g>
    <defs>
      <filter id="filter0_d_65_3769" x="2.40267" y="0.5" width="36.5833" height="44.0833" filterUnits="userSpaceOnUse" color-interpolation-filters="sRGB">
        <feFlood flood-opacity="0" result="BackgroundImageFix"></feFlood>
        <feColorMatrix in="SourceAlpha" type="matrix" values="0 0 0 0 0 0 0 0 0 0 0 0 0 0 0 0 0 0 127 0" result="hardAlpha"></feColorMatrix>
        <feOffset dy="2.04167"></feOffset>
        <feGaussianBlur stdDeviation="1.02083"></feGaussianBlur>
        <feComposite in2="hardAlpha" operator="out"></feComposite>
        <feColorMatrix type="matrix" values="0 0 0 0 0 0 0 0 0 0 0 0 0 0 0 0 0 0 0.25 0"></feColorMatrix>
        <feBlend mode="normal" in2="BackgroundImageFix" result="effect1_dropShadow_65_3769"></feBlend>
        <feBlend mode="normal" in="SourceGraphic" in2="effect1_dropShadow_65_3769" result="shape"></feBlend>
      </filter>
      <linearGradient id="paint0_linear_65_3769" x1="20.6943" y1="0.5" x2="20.6943" y2="40.5" gradientUnits="userSpaceOnUse">
        <stop stop-color="#FCFF65"></stop>
        <stop offset="1" stop-color="#E2E700"></stop>
      </linearGradient>
    </defs>
  </symbol>
  <symbol  xmlns="http://www.w3.org/2000/svg" viewBox="0 0 14 14" id="quotes">
    <g clip-path="url(#clip0_104_1581)">
      <path d="M7 9.1L8.085 6.685L10.5 5.6L8.085 4.515L7 2.1L5.915 4.515L3.5 5.6L5.915 6.685L7 9.1ZM0 14V1.4C0 1.015 0.1372 0.6853 0.4116 0.4109C0.685533 0.136967 1.015 0 1.4 0H12.6C12.985 0 13.3147 0.136967 13.5891 0.4109C13.863 0.6853 14 1.015 14 1.4V9.8C14 10.185 13.863 10.5147 13.5891 10.7891C13.3147 11.063 12.985 11.2 12.6 11.2H2.8L0 14Z" ></path>
    </g>
    <defs>
      <clipPath id="clip0_104_1581">
        <rect width="14" height="14" ></rect>
      </clipPath>
    </defs>
  </symbol>
  <symbol  xmlns="http://www.w3.org/2000/svg" viewBox="0 0 260 245" id="star">

    <path xmlns="http://www.w3.org/2000/svg" d="m56,237 74-228 74,228L10,96h240"/>
  </symbol>
  <symbol  xmlns="http://www.w3.org/2000/svg" viewBox="0 0 24 24" id="download">
    <path d="M6 20.0394C4.34545 20.0394 2.932 19.4666 1.75964 18.3212C0.586545 17.1757 0 15.7757 0 14.1212C0 12.703 0.427273 11.4394 1.28182 10.3303C2.13636 9.22117 3.25455 8.51208 4.63636 8.20299C5.05455 6.73026 5.832 5.4939 6.96873 4.4939C8.10473 3.4939 9.41818 2.88481 10.9091 2.66663V11.4757L9.16364 9.78481L7.63636 11.3121L12 15.6757L16.3636 11.3121L14.8364 9.78481L13.0909 11.4757V2.66663C14.9636 2.92117 16.5229 3.7619 17.7687 5.18881C19.0138 6.61644 19.6364 8.2939 19.6364 10.2212C20.8909 10.3666 21.932 10.9074 22.7596 11.8434C23.5865 12.7801 24 13.8757 24 15.1303C24 16.4939 23.5229 17.6532 22.5687 18.6081C21.6138 19.5623 20.4545 20.0394 19.0909 20.0394H6Z" ></path>
  </symbol>
  <symbol  xmlns="http://www.w3.org/2000/svg" viewBox="0 0 16 16" id="headphones">
    <g clip-path="url(#clip0_49_3815)">
      <path d="M8 0C3.5888 0 0 3.5888 0 8V11.3144C0 12.1336 0.7176 12.8 1.6 12.8H2.4C2.61217 12.8 2.81566 12.7157 2.96569 12.5657C3.11571 12.4157 3.2 12.2122 3.2 12V7.8856C3.2 7.67343 3.11571 7.46994 2.96569 7.31991C2.81566 7.16989 2.61217 7.0856 2.4 7.0856H1.6736C2.1184 3.9896 4.7824 1.6 8 1.6C11.2176 1.6 13.8816 3.9896 14.3264 7.0856H13.6C13.3878 7.0856 13.1843 7.16989 13.0343 7.31991C12.8843 7.46994 12.8 7.67343 12.8 7.8856V12.8C12.8 13.6824 12.0824 14.4 11.2 14.4H9.6V13.6H6.4V16H11.2C12.9648 16 14.4 14.5648 14.4 12.8C15.2824 12.8 16 12.1336 16 11.3144V8C16 3.5888 12.4112 0 8 0Z" ></path>
    </g>
    <defs>
      <clipPath id="clip0_49_3815">
        <rect width="16" height="16" ></rect>
      </clipPath>
    </defs>
  </symbol>
  <symbol  xmlns="http://www.w3.org/2000/svg" viewBox="0 0 12 9"  id="triangle">
    <path d="M6 0L11.1962 9L0.803848 9L6 0Z" ></path>
  </symbol>
  <symbol  xmlns="http://www.w3.org/2000/svg" viewBox="0 0 18 15" id="live">
    <path d="M6.3 10.8H8.1V8.1H10.8V6.3H8.1V3.6H6.3V6.3H3.6V8.1H6.3V10.8ZM1.8 14.4C1.305 14.4 0.8814 14.2239 0.5292 13.8717C0.1764 13.5189 0 13.095 0 12.6V1.8C0 1.305 0.1764 0.8814 0.5292 0.5292C0.8814 0.1764 1.305 0 1.8 0H12.6C13.095 0 13.5189 0.1764 13.8717 0.5292C14.2239 0.8814 14.4 1.305 14.4 1.8V5.85L18 2.25V12.15L14.4 8.55V12.6C14.4 13.095 14.2239 13.5189 13.8717 13.8717C13.5189 14.2239 13.095 14.4 12.6 14.4H1.8Z" fill="#156246"></path>
  </symbol>
  <symbol  xmlns="http://www.w3.org/2000/svg" viewBox="0 0 18 18" id="game">
    <path d="M16 0H2C0.9 0 0 0.9 0 2V16C0 17.1 0.9 18 2 18H16C17.1 18 18 17.1 18 16V2C18 0.9 17.1 0 16 0ZM4.5 15C3.67 15 3 14.33 3 13.5C3 12.67 3.67 12 4.5 12C5.33 12 6 12.67 6 13.5C6 14.33 5.33 15 4.5 15ZM4.5 6C3.67 6 3 5.33 3 4.5C3 3.67 3.67 3 4.5 3C5.33 3 6 3.67 6 4.5C6 5.33 5.33 6 4.5 6ZM9 10.5C8.17 10.5 7.5 9.83 7.5 9C7.5 8.17 8.17 7.5 9 7.5C9.83 7.5 10.5 8.17 10.5 9C10.5 9.83 9.83 10.5 9 10.5ZM13.5 15C12.67 15 12 14.33 12 13.5C12 12.67 12.67 12 13.5 12C14.33 12 15 12.67 15 13.5C15 14.33 14.33 15 13.5 15ZM13.5 6C12.67 6 12 5.33 12 4.5C12 3.67 12.67 3 13.5 3C14.33 3 15 3.67 15 4.5C15 5.33 14.33 6 13.5 6Z" ></path>
  </symbol>
  <symbol  xmlns="http://www.w3.org/2000/svg" viewBox="0 0 14 14" id="news">
    <g clip-path="url(#clip0_104_1588)">
      <path d="M12.6 0.777832H1.4C0.623 0.777832 0 1.40083 0 2.17783V11.9778C0 12.7548 0.623 13.3778 1.4 13.3778H12.6C13.377 13.3778 14 12.7548 14 11.9778V2.17783C14 1.40083 13.377 0.777832 12.6 0.777832ZM2.1 3.57783H5.6V7.77783H2.1V3.57783ZM11.9 10.5778H2.1V9.17783H11.9V10.5778ZM11.9 7.77783H7V6.37783H11.9V7.77783ZM11.9 4.97783H7V3.57783H11.9V4.97783Z" ></path>
    </g>
    <defs>
      <clipPath id="clip0_104_1588">
        <rect width="14" height="14" ></rect>
      </clipPath>
    </defs>
  </symbol>
  <symbol  xmlns="http://www.w3.org/2000/svg" viewBox="0 0 14 14" id="dots">
    <path d="M2.73177 4.66675L2.58849 6.09475L4.00213 5.53475L4.33644 6.56142L2.9037 6.88808L3.85886 7.94275L2.9037 8.59608L2.14912 7.37342L1.40409 8.59608L0.448927 7.94275L1.40409 6.88808L0 6.56142L0.372514 5.53475L1.70974 6.09475L1.58557 4.66675H2.73177Z" ></path>
    <path d="M7.56355 4.66675L7.42027 6.09475L8.83391 5.53475L9.16822 6.56142L7.73548 6.88808L8.69064 7.94275L7.73548 8.59608L6.9809 7.37342L6.23587 8.59608L5.28071 7.94275L6.23587 6.88808L4.83178 6.56142L5.20429 5.53475L6.54152 6.09475L6.41735 4.66675H7.56355Z" ></path>
    <path d="M12.3953 4.66675L12.2521 6.09475L13.6657 5.53475L14 6.56142L12.5673 6.88808L13.5224 7.94275L12.5673 8.59608L11.8127 7.37342L11.0677 8.59608L10.1125 7.94275L11.0677 6.88808L9.66356 6.56142L10.0361 5.53475L11.3733 6.09475L11.2491 4.66675H12.3953Z" ></path>
  </symbol>
   <symbol fill=""  id="gift" xmlns="http://www.w3.org/2000/svg" xmlns:xlink="http://www.w3.org/1999/xlink" xml:space="preserve" viewBox="0 0 512 512">
    <g>
      <g>
        <path d="M495.304,278.26H241.126l29.828-39.582c5.545-7.359,4.077-17.833-3.286-23.381l-26.667-20.094
			c-22.054-16.62-53.522-12.199-70.143,9.857l-31.87,42.294c-3.057-4.625-6.931-8.818-11.605-12.341
			c-22.107-16.66-53.48-12.252-70.142,9.858c-7.714,10.238-10.889,22.501-9.877,34.368c-11.684,2.298-22.599,8.729-30.313,18.966
			c-16.621,22.057-12.199,53.522,9.857,70.143c4.675,3.523,9.772,6.092,15.06,7.755l-31.868,42.292
			c-16.659,22.107-12.253,53.482,9.858,70.142l26.667,20.096c7.363,5.547,17.833,4.077,23.381-3.286l141.48-187.751v144.313
			c0,27.617,22.468,50.086,50.086,50.086h200.343c27.617,0,50.086-22.469,50.086-50.086V294.955
			C511.999,285.735,504.525,278.26,495.304,278.26z M83.907,264.966c5.562-7.383,16.025-8.828,23.38-3.287
			c7.352,5.538,8.825,16.024,3.29,23.376l-10.051,13.338l-13.333-10.047C79.841,282.807,78.367,272.317,83.907,264.966z
			 M43.717,318.298c5.544-7.357,16.034-8.822,23.38-3.286l13.333,10.047l-10.048,13.335c-5.553,7.368-16.01,8.837-23.379,3.285
			C39.651,336.14,38.177,325.651,43.717,318.298z M53.385,471.918l-13.333-10.047c-7.369-5.552-8.841-16.01-3.287-23.38
			l160.76-213.335c5.562-7.38,16.026-8.828,23.381-3.286l13.333,10.047L53.385,471.918z M345.047,478.603h-83.476
			c-9.206,0-16.695-7.49-16.695-16.695V311.65h100.172V478.603z M478.609,461.908c0,9.206-7.49,16.695-16.695,16.695h-83.476V311.65
			h100.172V461.908z"></path>
      </g>
    </g>
    <g>
      <g>
        <path d="M481.354,101.682c-4.756-7.9-15.019-10.448-22.915-5.689c-34.133,20.555-57.311,54.876-63.594,94.163
			c-1.457,9.103,4.745,17.665,13.849,19.122c9.126,1.455,17.668-4.76,19.123-13.849c4.725-29.547,22.166-55.365,47.849-70.832
			C483.564,119.84,486.111,109.581,481.354,101.682z"></path>
      </g>
    </g>
    <g>
      <g>
        <path d="M327.086,190.076c-6.303-39.253-29.477-73.544-63.582-94.082c-7.898-4.758-18.158-2.21-22.915,5.689
			c-4.756,7.899-2.208,18.158,5.69,22.915c25.663,15.455,43.099,41.251,47.84,70.772c1.461,9.104,10.027,15.301,19.131,13.837
			C322.354,207.745,328.549,199.179,327.086,190.076z"></path>
      </g>
    </g>
    <g>
      <g>
        <path d="M361.742,0.006c-9.22,0-16.695,7.475-16.695,16.695v111.302c0,9.22,7.475,16.695,16.695,16.695
			c9.22,0,16.695-7.475,16.695-16.695V16.701C378.437,7.481,370.962,0.006,361.742,0.006z"></path>
      </g>
    </g>
    <g>
      <g>
        <circle cx="244.874" cy="44.532" r="16.695"></circle>
      </g>
    </g>
    <g>
      <g>
        <circle cx="445.217" cy="44.532" r="16.695"></circle>
      </g>
    </g>
  </symbol>
  <symbol  xmlns="http://www.w3.org/2000/svg" viewBox="0 0 14 14" id="phone">
    <path d="M10.5833 0H3.33325C2.78169 0 2.33325 0.448438 2.33325 1V13C2.33325 13.5516 2.78169 14 3.33325 14H10.5833C11.1348 14 11.5833 13.5516 11.5833 13V1C11.5833 0.448438 11.1348 0 10.5833 0ZM6.95825 11.9062C6.61294 11.9062 6.33325 11.6266 6.33325 11.2812C6.33325 10.9359 6.61294 10.6562 6.95825 10.6562C7.30357 10.6562 7.58325 10.9359 7.58325 11.2812C7.58325 11.6266 7.30357 11.9062 6.95825 11.9062Z" ></path>
  </symbol>
  <symbol  xmlns="http://www.w3.org/2000/svg" viewBox="0 0 18 18" id="american-football">
    <g clip-path="url(#clip0_104_1161)">
      <path d="M6.09636 17.9501L0.0430092 11.8967C-0.0400272 12.6939 -0.00282692 13.6571 0.15461 14.7864C0.312711 15.9157 0.508013 16.7461 0.740515 17.2775C1.32177 17.5598 2.16476 17.7634 3.26947 17.8883C4.37352 18.0125 5.31582 18.0331 6.09636 17.9501ZM8.4629 17.5515C9.67523 17.319 10.8005 16.9414 11.8388 16.4186C12.8765 15.8951 13.7689 15.268 14.5163 14.5373C15.2304 13.8232 15.8448 12.9513 16.3597 11.9217C16.8745 10.892 17.2648 9.76271 17.5305 8.53377L9.45934 0.462631C8.28022 0.728348 7.18015 1.1226 6.15914 1.6454C5.13746 2.16886 4.26956 2.78765 3.55545 3.50176C2.84134 4.23248 2.21458 5.10835 1.67517 6.12937C1.1351 7.15105 0.723908 8.28466 0.441584 9.53021L8.4629 17.5515ZM6.4202 12.9928L5.02519 11.5978L11.6017 5.02133L12.9967 6.41634L6.4202 12.9928ZM17.9291 6.16723C18.0287 5.32026 18.0204 4.36933 17.9041 3.31443C17.7879 2.2602 17.5803 1.40094 17.2814 0.736652C16.7998 0.454328 15.9777 0.246737 14.8152 0.113878C13.6527 -0.0189798 12.6728 -0.035587 11.8757 0.0640567L17.9291 6.16723Z" fill="#156246"></path>
    </g>
    <defs>
      <clipPath id="clip0_104_1161">
        <rect width="18" height="18" ></rect>
      </clipPath>
    </defs>
  </symbol>
  <symbol  xmlns="http://www.w3.org/2000/svg" viewBox="0 0 14 14" id="list">
    <path d="M0 10.8889V9.33331H10.8889V10.8889H0ZM1.55556 7.77775V6.2222H12.4444V7.77775H1.55556ZM3.11111 4.66664V3.11108H14V4.66664H3.11111Z" ></path>
  </symbol>
  <symbol  xmlns="http://www.w3.org/2000/svg" viewBox="0 0 18 21" id="register">
    <path d="M8.45918 10.4999C10.8175 10.4999 12.7294 8.58806 12.7294 6.22968C12.7294 3.87131 10.8175 1.95947 8.45918 1.95947C6.1008 1.95947 4.18896 3.87131 4.18896 6.22968C4.18896 8.58806 6.1008 10.4999 8.45918 10.4999Z" stroke="#156246" stroke-width="2"></path>
    <path d="M12.7298 19.0404H2.70846C2.46623 19.0404 2.22677 18.989 2.00596 18.8894C1.78515 18.7898 1.58804 18.6444 1.42771 18.4629C1.26739 18.2813 1.14751 18.0677 1.07604 17.8363C1.00458 17.6048 0.983147 17.3609 1.01318 17.1205L1.34626 14.4525C1.42372 13.8326 1.72495 13.2624 2.19333 12.8491C2.6617 12.4358 3.26493 12.2078 3.8896 12.208H4.18937M14.4379 11.354V16.4783M11.8757 13.9161H17" stroke="#156246" stroke-width="2" stroke-linecap="round" stroke-linejoin="round"></path>
  </symbol>
  <symbol  xmlns="http://www.w3.org/2000/svg" viewBox="0 0 18 18" id="india">
    <path d="M0 13.5444C0 14.0529 0.210714 14.5405 0.585786 14.9C0.960859 15.2596 1.46957 15.4616 2 15.4616H16C16.5304 15.4616 17.0391 15.2596 17.4142 14.9C17.7893 14.5405 18 14.0529 18 13.5444V11.1479H0V13.5444Z" fill="#138808"></path>
    <path d="M18 7.31361V4.91716C18 4.4087 17.7893 3.92106 17.4142 3.56152C17.0391 3.20199 16.5304 3 16 3H2C1.46957 3 0.960859 3.20199 0.585786 3.56152C0.210714 3.92106 0 4.4087 0 4.91716L0 7.31361H18Z" fill="#FF9933"></path>
    <path d="M0 7.15405H18V11.3081H0V7.15405Z" fill="#F7F7F7"></path>
    <path d="M9 11.1478C10.1046 11.1478 11 10.2895 11 9.23064C11 8.17182 10.1046 7.31348 9 7.31348C7.89543 7.31348 7 8.17182 7 9.23064C7 10.2895 7.89543 11.1478 9 11.1478Z" fill="#000080"></path>
    <path d="M9 10.8485C9.93198 10.8485 10.6875 10.1243 10.6875 9.23088C10.6875 8.33751 9.93198 7.61328 9 7.61328C8.06802 7.61328 7.3125 8.33751 7.3125 9.23088C7.3125 10.1243 8.06802 10.8485 9 10.8485Z" fill="#F7F7F7"></path>
    <path d="M9.0499 8.63164L8.9999 8.94317L8.9499 8.63164L8.9999 7.69702L9.0499 8.63164ZM8.5859 7.74926L8.7899 8.66423L8.9224 8.95276L8.8864 8.63978L8.5859 7.74926ZM8.1999 7.90264L8.6439 8.73564L8.8499 8.98152L8.7309 8.68771L8.1999 7.90264ZM7.8684 8.14612L8.5224 8.84109L8.7879 9.02753L8.5934 8.77303L7.8684 8.14612ZM7.6144 8.46389L8.4334 8.97289L8.7399 9.08696L8.4834 8.88949L7.6144 8.46389ZM7.4544 8.8339L8.3834 9.12195L8.7099 9.15646L8.4089 9.02945L7.4544 8.8339ZM7.3999 9.23075L8.3749 9.27868L8.6999 9.23075L8.3749 9.18282L7.3999 9.23075ZM7.4544 9.6276L8.4089 9.43205L8.7099 9.30504L8.3834 9.33955L7.4544 9.6276ZM7.6144 9.99761L8.4834 9.572L8.7399 9.37454L8.4334 9.48861L7.6144 9.99761ZM7.8684 10.3154L8.5934 9.68847L8.7879 9.43397L8.5224 9.62041L7.8684 10.3154ZM8.1999 10.5589L8.7309 9.77378L8.8499 9.47998L8.6439 9.72586L8.1999 10.5589ZM8.5859 10.7122L8.8864 9.82171L8.9224 9.50874L8.7899 9.79727L8.5859 10.7122ZM8.9999 10.7645L9.0499 9.82986L8.9999 9.51832L8.9499 9.82986L8.9999 10.7645ZM9.4139 10.7122L9.2099 9.79727L9.0774 9.50874L9.1134 9.82171L9.4139 10.7122ZM9.7999 10.5589L9.3559 9.72586L9.1499 9.47998L9.2689 9.77378L9.7999 10.5589ZM10.1314 10.3154L9.4774 9.62041L9.2119 9.43397L9.4064 9.68847L10.1314 10.3154ZM10.3854 9.99761L9.5664 9.48861L9.2599 9.37454L9.5164 9.572L10.3854 9.99761ZM10.5454 9.6276L9.6164 9.33955L9.2899 9.30504L9.5909 9.43205L10.5454 9.6276ZM10.5999 9.23075L9.6249 9.18282L9.2999 9.23075L9.6249 9.27868L10.5999 9.23075ZM10.5454 8.8339L9.5909 9.02945L9.2899 9.15646L9.6164 9.12195L10.5454 8.8339ZM10.3854 8.46389L9.5164 8.88949L9.2599 9.08696L9.5664 8.97289L10.3854 8.46389ZM10.1314 8.14612L9.4064 8.77303L9.2119 9.02753L9.4774 8.84109L10.1314 8.14612ZM9.7999 7.90264L9.2689 8.68771L9.1499 8.98152L9.3559 8.73564L9.7999 7.90264ZM9.4139 7.74926L9.1134 8.63978L9.0774 8.95276L9.2099 8.66423L9.4139 7.74926Z" fill="#6666B3"></path>
    <path d="M8.77969 7.72541C8.83492 7.72541 8.87969 7.68249 8.87969 7.62955C8.87969 7.57661 8.83492 7.53369 8.77969 7.53369C8.72446 7.53369 8.67969 7.57661 8.67969 7.62955C8.67969 7.68249 8.72446 7.72541 8.77969 7.72541Z" fill="#000080"></path>
    <path d="M8.35488 7.83454C8.41011 7.83454 8.45488 7.79162 8.45488 7.73868C8.45488 7.68574 8.41011 7.64282 8.35488 7.64282C8.29965 7.64282 8.25488 7.68574 8.25488 7.73868C8.25488 7.79162 8.29965 7.83454 8.35488 7.83454Z" fill="#000080"></path>
    <path d="M7.97402 8.04499C8.02925 8.04499 8.07402 8.00207 8.07402 7.94913C8.07402 7.89619 8.02925 7.85327 7.97402 7.85327C7.91879 7.85327 7.87402 7.89619 7.87402 7.94913C7.87402 8.00207 7.91879 8.04499 7.97402 8.04499Z" fill="#000080"></path>
    <path d="M7.66299 8.34308C7.71822 8.34308 7.76299 8.30017 7.76299 8.24723C7.76299 8.19428 7.71822 8.15137 7.66299 8.15137C7.60776 8.15137 7.56299 8.19428 7.56299 8.24723C7.56299 8.30017 7.60776 8.34308 7.66299 8.34308Z" fill="#000080"></path>
    <path d="M7.44375 8.70832C7.49898 8.70832 7.54375 8.6654 7.54375 8.61246C7.54375 8.55952 7.49898 8.5166 7.44375 8.5166C7.38852 8.5166 7.34375 8.55952 7.34375 8.61246C7.34375 8.6654 7.38852 8.70832 7.44375 8.70832Z" fill="#000080"></path>
    <path d="M7.32949 9.11579C7.38472 9.11579 7.42949 9.07287 7.42949 9.01993C7.42949 8.96699 7.38472 8.92407 7.32949 8.92407C7.27426 8.92407 7.22949 8.96699 7.22949 9.01993C7.22949 9.07287 7.27426 9.11579 7.32949 9.11579Z" fill="#000080"></path>
    <path d="M7.32949 9.53766C7.38472 9.53766 7.42949 9.49475 7.42949 9.44181C7.42949 9.38886 7.38472 9.34595 7.32949 9.34595C7.27426 9.34595 7.22949 9.38886 7.22949 9.44181C7.22949 9.49475 7.27426 9.53766 7.32949 9.53766Z" fill="#000080"></path>
    <path d="M7.44375 9.94489C7.49898 9.94489 7.54375 9.90197 7.54375 9.84903C7.54375 9.79609 7.49898 9.75317 7.44375 9.75317C7.38852 9.75317 7.34375 9.79609 7.34375 9.84903C7.34375 9.90197 7.38852 9.94489 7.44375 9.94489Z" fill="#000080"></path>
    <path d="M7.66299 10.3101C7.71822 10.3101 7.76299 10.2672 7.76299 10.2143C7.76299 10.1613 7.71822 10.1184 7.66299 10.1184C7.60776 10.1184 7.56299 10.1613 7.56299 10.2143C7.56299 10.2672 7.60776 10.3101 7.66299 10.3101Z" fill="#000080"></path>
    <path d="M7.97402 10.6082C8.02925 10.6082 8.07402 10.5653 8.07402 10.5124C8.07402 10.4594 8.02925 10.4165 7.97402 10.4165C7.91879 10.4165 7.87402 10.4594 7.87402 10.5124C7.87402 10.5653 7.91879 10.6082 7.97402 10.6082Z" fill="#000080"></path>
    <path d="M8.35488 10.8187C8.41011 10.8187 8.45488 10.7758 8.45488 10.7228C8.45488 10.6699 8.41011 10.627 8.35488 10.627C8.29965 10.627 8.25488 10.6699 8.25488 10.7228C8.25488 10.7758 8.29965 10.8187 8.35488 10.8187Z" fill="#000080"></path>
    <path d="M8.77969 10.928C8.83492 10.928 8.87969 10.8851 8.87969 10.8322C8.87969 10.7792 8.83492 10.7363 8.77969 10.7363C8.72446 10.7363 8.67969 10.7792 8.67969 10.8322C8.67969 10.8851 8.72446 10.928 8.77969 10.928Z" fill="#000080"></path>
    <path d="M9.22012 10.928C9.27535 10.928 9.32012 10.8851 9.32012 10.8322C9.32012 10.7792 9.27535 10.7363 9.22012 10.7363C9.16489 10.7363 9.12012 10.7792 9.12012 10.8322C9.12012 10.8851 9.16489 10.928 9.22012 10.928Z" fill="#000080"></path>
    <path d="M9.64492 10.8187C9.70015 10.8187 9.74492 10.7758 9.74492 10.7228C9.74492 10.6699 9.70015 10.627 9.64492 10.627C9.58969 10.627 9.54492 10.6699 9.54492 10.7228C9.54492 10.7758 9.58969 10.8187 9.64492 10.8187Z" fill="#000080"></path>
    <path d="M10.0258 10.6082C10.081 10.6082 10.1258 10.5653 10.1258 10.5124C10.1258 10.4594 10.081 10.4165 10.0258 10.4165C9.97055 10.4165 9.92578 10.4594 9.92578 10.5124C9.92578 10.5653 9.97055 10.6082 10.0258 10.6082Z" fill="#000080"></path>
    <path d="M10.3373 10.3101C10.3925 10.3101 10.4373 10.2672 10.4373 10.2143C10.4373 10.1613 10.3925 10.1184 10.3373 10.1184C10.2821 10.1184 10.2373 10.1613 10.2373 10.2143C10.2373 10.2672 10.2821 10.3101 10.3373 10.3101Z" fill="#000080"></path>
    <path d="M10.5565 9.94489C10.6118 9.94489 10.6565 9.90197 10.6565 9.84903C10.6565 9.79609 10.6118 9.75317 10.5565 9.75317C10.5013 9.75317 10.4565 9.79609 10.4565 9.84903C10.4565 9.90197 10.5013 9.94489 10.5565 9.94489Z" fill="#000080"></path>
    <path d="M10.6703 9.53766C10.7255 9.53766 10.7703 9.49475 10.7703 9.44181C10.7703 9.38886 10.7255 9.34595 10.6703 9.34595C10.6151 9.34595 10.5703 9.38886 10.5703 9.44181C10.5703 9.49475 10.6151 9.53766 10.6703 9.53766Z" fill="#000080"></path>
    <path d="M10.6703 9.11579C10.7255 9.11579 10.7703 9.07287 10.7703 9.01993C10.7703 8.96699 10.7255 8.92407 10.6703 8.92407C10.6151 8.92407 10.5703 8.96699 10.5703 9.01993C10.5703 9.07287 10.6151 9.11579 10.6703 9.11579Z" fill="#000080"></path>
    <path d="M10.5565 8.70832C10.6118 8.70832 10.6565 8.6654 10.6565 8.61246C10.6565 8.55952 10.6118 8.5166 10.5565 8.5166C10.5013 8.5166 10.4565 8.55952 10.4565 8.61246C10.4565 8.6654 10.5013 8.70832 10.5565 8.70832Z" fill="#000080"></path>
    <path d="M10.3373 8.34308C10.3925 8.34308 10.4373 8.30017 10.4373 8.24723C10.4373 8.19428 10.3925 8.15137 10.3373 8.15137C10.2821 8.15137 10.2373 8.19428 10.2373 8.24723C10.2373 8.30017 10.2821 8.34308 10.3373 8.34308Z" fill="#000080"></path>
    <path d="M10.0258 8.04499C10.081 8.04499 10.1258 8.00207 10.1258 7.94913C10.1258 7.89619 10.081 7.85327 10.0258 7.85327C9.97055 7.85327 9.92578 7.89619 9.92578 7.94913C9.92578 8.00207 9.97055 8.04499 10.0258 8.04499Z" fill="#000080"></path>
    <path d="M9.64492 7.83454C9.70015 7.83454 9.74492 7.79162 9.74492 7.73868C9.74492 7.68574 9.70015 7.64282 9.64492 7.64282C9.58969 7.64282 9.54492 7.68574 9.54492 7.73868C9.54492 7.79162 9.58969 7.83454 9.64492 7.83454Z" fill="#000080"></path>
    <path d="M9.22012 7.72541C9.27535 7.72541 9.32012 7.68249 9.32012 7.62955C9.32012 7.57661 9.27535 7.53369 9.22012 7.53369C9.16489 7.53369 9.12012 7.57661 9.12012 7.62955C9.12012 7.68249 9.16489 7.72541 9.22012 7.72541Z" fill="#000080"></path>
    <path d="M9.00029 9.66204C9.24882 9.66204 9.45029 9.46891 9.45029 9.23068C9.45029 8.99244 9.24882 8.79932 9.00029 8.79932C8.75176 8.79932 8.55029 8.99244 8.55029 9.23068C8.55029 9.46891 8.75176 9.66204 9.00029 9.66204Z" fill="#000080"></path>
  </symbol>
  <symbol  xmlns="http://www.w3.org/2000/svg" viewBox="0 0 492.771 492.771"  id="flag">
    <path id="XMLID_686_" d="M431.732,279.197l-67.804-76.611l67.804-76.603c3.867-4.371,4.813-10.611,2.406-15.937
	c-2.39-5.325-7.684-8.75-13.537-8.75h-88.16V38.121c0-8.196-6.641-14.846-14.854-14.846H108.432C107.197,10.241,96.355,0,82.993,0
	S58.786,10.241,57.551,23.275h-0.239v2.406v200.18v241.228c0,14.18,11.501,25.682,25.682,25.682
	c14.179,0,25.681-11.502,25.681-25.682V225.861h102.628v63.177c0,8.196,6.642,14.846,14.854,14.846h194.462
	c5.838,0,11.132-3.425,13.538-8.751C436.545,289.809,435.6,283.568,431.732,279.197z"/>

  </symbol>
  <symbol  xmlns="http://www.w3.org/2000/svg" viewBox="0 0 47 48" id="google-play">
    <g filter="url(#filter0_d_100_932)">
      <path d="M30.6323 24.9288C34.4373 22.8435 37.3217 21.2544 37.5703 21.1309C38.3657 20.7087 39.187 19.5914 37.5703 18.7234C37.0483 18.4505 34.238 16.911 30.6323 14.9255L25.6338 19.9643L30.6323 24.9287V24.9288Z" fill="#F4D20E"></path>
      <path d="M25.6346 19.9644L9.71875 35.9754C10.0923 36.0247 10.5141 35.9259 11.0113 35.653C12.0553 35.0826 23.1223 29.0501 30.6331 24.9301L25.6346 19.9644Z" fill="#E93C51"></path>
      <path d="M25.6339 19.9643L30.6324 14.9504C30.6324 14.9504 12.1301 4.87166 11.0107 4.2767C10.5889 4.02736 10.1163 3.9533 9.69336 4.02736L25.6339 19.9643Z" fill="#0EE177"></path>
      <path d="M25.6342 19.9643L9.69365 4.02734C9.04672 4.17664 8.5 4.74714 8.5 5.9139V34.0887C8.5 35.1566 8.92305 35.9258 9.71839 36L25.6342 19.9643Z" fill="#22CEF2"></path>
    </g>
    <defs>
      <filter id="filter0_d_100_932" x="0.5" y="0" width="46" height="48" filterUnits="userSpaceOnUse" color-interpolation-filters="sRGB">
        <feFlood flood-opacity="0" result="BackgroundImageFix"></feFlood>
        <feColorMatrix in="SourceAlpha" type="matrix" values="0 0 0 0 0 0 0 0 0 0 0 0 0 0 0 0 0 0 127 0" result="hardAlpha"></feColorMatrix>
        <feOffset dy="4"></feOffset>
        <feGaussianBlur stdDeviation="4"></feGaussianBlur>
        <feComposite in2="hardAlpha" operator="out"></feComposite>
        <feColorMatrix type="matrix" values="0 0 0 0 0 0 0 0 0 0 0 0 0 0 0 0 0 0 0.1 0"></feColorMatrix>
        <feBlend mode="normal" in2="BackgroundImageFix" result="effect1_dropShadow_100_932"></feBlend>
        <feBlend mode="normal" in="SourceGraphic" in2="effect1_dropShadow_100_932" result="shape"></feBlend>
      </filter>
    </defs>
  </symbol>
  <symbol  xmlns="http://www.w3.org/2000/svg" viewBox="0 0 37 41" id="android">
    <path d="M4.79409 25.6435C4.79409 26.2497 4.55327 26.831 4.12462 27.2597C3.69596 27.6884 3.11458 27.9292 2.50837 27.9292C1.90216 27.9292 1.32078 27.6884 0.892127 27.2597C0.463472 26.831 0.222656 26.2497 0.222656 25.6435V15.3577C0.222656 14.7515 0.463472 14.1701 0.892127 13.7415C1.32078 13.3128 1.90216 13.072 2.50837 13.072C3.11458 13.072 3.69596 13.3128 4.12462 13.7415C4.55327 14.1701 4.79409 14.7515 4.79409 15.3577V25.6435ZM36.7941 25.6435C36.7941 26.2497 36.5533 26.831 36.1246 27.2597C35.696 27.6884 35.1146 27.9292 34.5084 27.9292C33.9022 27.9292 33.3208 27.6884 32.8921 27.2597C32.4635 26.831 32.2227 26.2497 32.2227 25.6435V15.3577C32.2227 14.7515 32.4635 14.1701 32.8921 13.7415C33.3208 13.3128 33.9022 13.072 34.5084 13.072C35.1146 13.072 35.696 13.3128 36.1246 13.7415C36.5533 14.1701 36.7941 14.7515 36.7941 15.3577V25.6435ZM16.2227 38.2137C16.2227 38.8199 15.9818 39.4013 15.5532 39.83C15.1245 40.2586 14.5432 40.4995 13.9369 40.4995C13.3307 40.4995 12.7494 40.2586 12.3207 39.83C11.892 39.4013 11.6512 38.8199 11.6512 38.2137V27.928C11.6512 27.3218 11.892 26.7404 12.3207 26.3118C12.7494 25.8831 13.3307 25.6423 13.9369 25.6423C14.5432 25.6423 15.1245 25.8831 15.5532 26.3118C15.9818 26.7404 16.2227 27.3218 16.2227 27.928V38.2137ZM25.3655 38.2137C25.3655 38.8199 25.1247 39.4013 24.6961 39.83C24.2674 40.2586 23.686 40.4995 23.0798 40.4995C22.4736 40.4995 21.8922 40.2586 21.4636 39.83C21.0349 39.4013 20.7941 38.8199 20.7941 38.2137V27.928C20.7941 27.3218 21.0349 26.7404 21.4636 26.3118C21.8922 25.8831 22.4736 25.6423 23.0798 25.6423C23.686 25.6423 24.2674 25.8831 24.6961 26.3118C25.1247 26.7404 25.3655 27.3218 25.3655 27.928V38.2137Z" fill="url(#paint0_linear_262_485)"></path>
    <path d="M7.08057 13.0723V30.214C7.08057 30.8202 7.32138 31.4016 7.75004 31.8303C8.17869 32.2589 8.76007 32.4997 9.36628 32.4997H27.652C28.2582 32.4997 28.8396 32.2589 29.2682 31.8303C29.6969 31.4016 29.9377 30.8202 29.9377 30.214V13.0723H7.08057ZM18.5091 1.64258C16.4691 1.64258 14.6662 2.0113 13.1296 2.66041C9.50133 4.1931 7.35755 7.28905 7.08057 10.7854H29.9377C29.5423 5.80829 25.3663 1.64258 18.5091 1.64258ZM13.9377 8.04029C13.6346 8.04029 13.3439 7.91989 13.1296 7.70556C12.9153 7.49123 12.7949 7.20054 12.7949 6.89744C12.7949 6.59433 12.9153 6.30364 13.1296 6.08931C13.3439 5.87499 13.6346 5.75458 13.9377 5.75458C14.2408 5.75458 14.5315 5.87499 14.7458 6.08931C14.9602 6.30364 15.0806 6.59433 15.0806 6.89744C15.0806 7.20054 14.9602 7.49123 14.7458 7.70556C14.5315 7.91989 14.2408 8.04029 13.9377 8.04029ZM23.0806 8.04029C22.7775 8.04029 22.4868 7.91989 22.2724 7.70556C22.0581 7.49123 21.9377 7.20054 21.9377 6.89744C21.9377 6.59433 22.0581 6.30364 22.2724 6.08931C22.4868 5.87499 22.7775 5.75458 23.0806 5.75458C23.3837 5.75458 23.6744 5.87499 23.8887 6.08931C24.103 6.30364 24.2234 6.59433 24.2234 6.89744C24.2234 7.20054 24.103 7.49123 23.8887 7.70556C23.6744 7.91989 23.3837 8.04029 23.0806 8.04029Z" fill="url(#paint1_linear_262_485)"></path>
    <path d="M25.3647 0.5L23.4607 3.356M11.6504 0.5L13.1738 2.87943" stroke="url(#paint2_linear_262_485)" stroke-linecap="round"></path>
    <defs>
      <linearGradient id="paint0_linear_262_485" x1="32.7306" y1="4.50128" x2="2.82091" y2="40.9643" gradientUnits="userSpaceOnUse">
        <stop stop-color="#2A936C"></stop>
        <stop offset="1" stop-color="#156246"></stop>
      </linearGradient>
      <linearGradient id="paint1_linear_262_485" x1="32.7306" y1="4.50128" x2="2.82091" y2="40.9643" gradientUnits="userSpaceOnUse">
        <stop stop-color="#2A936C"></stop>
        <stop offset="1" stop-color="#156246"></stop>
      </linearGradient>
      <linearGradient id="paint2_linear_262_485" x1="23.8409" y1="0.785695" x2="23.1768" y2="5.03724" gradientUnits="userSpaceOnUse">
        <stop stop-color="#2A936C"></stop>
        <stop offset="1" stop-color="#156246"></stop>
      </linearGradient>
    </defs>
  </symbol>
  <symbol  xmlns="http://www.w3.org/2000/svg" viewBox="0 0 18 18" id="cup">
    <path d="M14.3515 7.9556C14.3432 5.72412 14.3333 3.49265 14.3216 1.26118C14.3204 1.00239 14.3166 0.999056 14.0307 1.00009C12.5204 1.00557 11.0102 1.01112 9.49994 1.01674C7.98968 1.01119 6.47942 1.00564 4.96916 1.00009C4.68325 0.999056 4.67947 1.00239 4.67825 1.26118C4.6677 3.49265 4.65774 5.72412 4.64839 7.9556C4.64298 8.14429 4.65308 8.33308 4.6786 8.52046C4.9604 10.2556 6.03776 11.421 7.86728 12.0362C8.01378 12.0855 8.06613 12.1421 8.06302 12.2827C8.05104 12.8209 8.05424 13.3595 8.05169 13.8979C8.05003 14.2495 8.04986 14.2559 7.64974 14.2511C7.47598 14.249 7.41938 14.305 7.42703 14.456C7.43757 14.6639 7.42798 14.8726 7.42697 15.0916C7.21194 15.0908 7.02637 15.0893 6.84081 15.0896C6.61648 15.0901 6.60128 15.1042 6.59963 15.3101C6.598 15.5129 6.5976 15.7157 6.59661 15.9292C6.46394 15.9287 6.36434 15.9346 6.26618 15.9266C6.0923 15.9123 6.01518 15.9679 6.02398 16.1326C6.03493 16.3374 6.02431 16.5432 6.02364 16.7486C6.02287 16.9846 6.02567 16.9871 6.29715 16.9881C7.36475 16.9921 8.43235 16.9961 9.49994 17C10.5675 16.9961 11.6351 16.9921 12.7027 16.9881C12.9742 16.9871 12.977 16.9846 12.9762 16.7486C12.9756 16.5432 12.9649 16.3374 12.9759 16.1326C12.9847 15.9679 12.9076 15.9123 12.7337 15.9266C12.6355 15.9346 12.5359 15.9287 12.4033 15.9292C12.4023 15.7157 12.4019 15.5129 12.4002 15.3101C12.3986 15.1042 12.3834 15.0901 12.1591 15.0896C11.9735 15.0893 11.7879 15.0908 11.5729 15.0916C11.5719 14.8726 11.5623 14.6639 11.5728 14.456C11.5805 14.305 11.5239 14.249 11.3501 14.2511C10.95 14.2559 10.9499 14.2495 10.9482 13.8979C10.9456 13.3595 10.9488 12.8209 10.9369 12.2827C10.9337 12.1421 10.9861 12.0855 11.1326 12.0362C12.9621 11.421 14.0395 10.2556 14.3213 8.52046C14.3468 8.33308 14.3569 8.14429 14.3515 7.9556Z" fill="#156246"></path>
    <path d="M4.19489 2.83517L2.84771 2.82923C2.84731 2.93147 2.847 3.01173 2.84669 3.09199C2.84206 4.28348 2.83743 5.47498 2.8328 6.66647C2.82913 7.60289 3.22572 8.09521 4.09138 8.22924C4.1163 8.23522 4.14091 8.24262 4.16509 8.25141C4.18032 8.52488 4.19585 8.80356 4.21265 9.10529C3.72887 9.13789 3.25033 8.98292 2.86519 8.66894C2.29577 8.21566 2.00006 7.60144 2 6.84148C1.99989 5.38828 2.00901 3.93507 2.01571 2.48187C2.01749 2.09623 2.15917 1.94291 2.52157 1.94147C3.02519 1.93948 3.52885 1.94786 4.03245 1.94468C4.15585 1.9439 4.20604 1.98245 4.20006 2.12103C4.1903 2.34684 4.1959 2.57341 4.19489 2.83517Z" fill="#156246"></path>
    <path d="M14.8049 2.83517L16.1521 2.82923C16.1525 2.93147 16.1528 3.01173 16.1531 3.09199C16.1577 4.28348 16.1623 5.47498 16.167 6.66647C16.1706 7.60289 15.774 8.09521 14.9084 8.22924C14.8835 8.23522 14.8589 8.24262 14.8347 8.25141C14.8194 8.52488 14.8039 8.80356 14.7871 9.10529C15.2709 9.13789 15.7494 8.98292 16.1346 8.66894C16.704 8.21566 16.9997 7.60144 16.9998 6.84148C16.9999 5.38828 16.9908 3.93507 16.9841 2.48187C16.9823 2.09623 16.8406 1.94291 16.4782 1.94147C15.9746 1.93948 15.4709 1.94786 14.9673 1.94468C14.8439 1.9439 14.7937 1.98245 14.7997 2.12103C14.8095 2.34684 14.8039 2.57341 14.8049 2.83517Z" fill="#156246"></path>
  </symbol>
  <symbol  xmlns="http://www.w3.org/2000/svg" viewBox="0 0 18 14" id="e-sport">
    <path d="M17.9874 4.26605C17.9854 4.23961 17.983 4.21321 17.9802 4.18685C17.9004 3.05211 17.3941 1.98963 16.5629 1.21294C15.7318 0.436256 14.6375 0.00292727 13.5 4.57417e-05H4.5C3.3465 -0.00516764 2.23558 0.435443 1.39923 1.22987C0.56288 2.02429 0.0657664 3.1111 0.0117 4.26335C0.00270001 4.33445 0 4.40825 0 4.49105V10.35C0 11.1825 0.3357 11.9952 0.9198 12.5784C1.51273 13.1675 2.31421 13.4987 3.15 13.5C4.77 13.5 5.4036 12.6 6.3 10.8C6.4314 10.5372 7.1928 9.00005 9 9.00005C10.7964 9.00005 11.5677 10.5363 11.7 10.8C12.6036 12.6 13.23 13.5 14.85 13.5C15.6825 13.5 16.4952 13.1643 17.0784 12.5802C17.6675 11.9873 17.9987 11.1858 18 10.35V4.50005C18 4.41455 17.9964 4.33805 17.9874 4.26605ZM4.5 6.32795C4.26029 6.33337 4.02192 6.29084 3.79888 6.20287C3.57583 6.1149 3.37261 5.98325 3.20114 5.81566C3.02968 5.64807 2.89342 5.44791 2.80037 5.22694C2.70733 5.00596 2.65937 4.76862 2.65931 4.52886C2.65925 4.28909 2.70709 4.05173 2.80002 3.83071C2.89296 3.60968 3.02912 3.40946 3.2005 3.24178C3.37188 3.0741 3.57504 2.94235 3.79804 2.85427C4.02104 2.76619 4.25939 2.72354 4.4991 2.72885C4.96941 2.73925 5.41695 2.93335 5.74593 3.2696C6.07491 3.60585 6.25919 4.05754 6.25931 4.52796C6.25942 4.99838 6.07538 5.45015 5.74656 5.78657C5.41775 6.12298 4.9703 6.31731 4.5 6.32795ZM13.5 1.82795C13.7387 1.82795 13.9676 1.92277 14.1364 2.09155C14.3052 2.26033 14.4 2.48925 14.4 2.72795C14.4 2.96664 14.3052 3.19556 14.1364 3.36434C13.9676 3.53312 13.7387 3.62795 13.5 3.62795C13.2613 3.62795 13.0324 3.53312 12.8636 3.36434C12.6948 3.19556 12.6 2.96664 12.6 2.72795C12.6 2.48925 12.6948 2.26033 12.8636 2.09155C13.0324 1.92277 13.2613 1.82795 13.5 1.82795ZM11.7 5.42795C11.4613 5.42795 11.2324 5.33313 11.0636 5.16434C10.8948 4.99556 10.8 4.76664 10.8 4.52795C10.8 4.28925 10.8948 4.06033 11.0636 3.89155C11.2324 3.72277 11.4613 3.62795 11.7 3.62795C11.9387 3.62795 12.1676 3.72277 12.3364 3.89155C12.5052 4.06033 12.6 4.28925 12.6 4.52795C12.6 4.76664 12.5052 4.99556 12.3364 5.16434C12.1676 5.33313 11.9387 5.42795 11.7 5.42795ZM13.5 7.22795C13.2613 7.22795 13.0324 7.13312 12.8636 6.96434C12.6948 6.79556 12.6 6.56664 12.6 6.32795C12.6 6.08925 12.6948 5.86033 12.8636 5.69155C13.0324 5.52277 13.2613 5.42795 13.5 5.42795C13.7387 5.42795 13.9676 5.52277 14.1364 5.69155C14.3052 5.86033 14.4 6.08925 14.4 6.32795C14.4 6.56664 14.3052 6.79556 14.1364 6.96434C13.9676 7.13312 13.7387 7.22795 13.5 7.22795ZM15.3 5.42795C15.0613 5.42795 14.8324 5.33313 14.6636 5.16434C14.4948 4.99556 14.4 4.76664 14.4 4.52795C14.4 4.28925 14.4948 4.06033 14.6636 3.89155C14.8324 3.72277 15.0613 3.62795 15.3 3.62795C15.5387 3.62795 15.7676 3.72277 15.9364 3.89155C16.1052 4.06033 16.2 4.28925 16.2 4.52795C16.2 4.76664 16.1052 4.99556 15.9364 5.16434C15.7676 5.33313 15.5387 5.42795 15.3 5.42795Z" fill="#156246"></path>
  </symbol>
  <symbol  xmlns="http://www.w3.org/2000/svg" viewBox="0 0 17 17" id="polygon">
    <path d="M17 9.6H10.6V16H17V9.6ZM4.6 0L8.2 6.4H1L4.6 0ZM13.8 6.4C14.6487 6.4 15.4626 6.06286 16.0627 5.46274C16.6629 4.86263 17 4.04869 17 3.2C17 2.35131 16.6629 1.53737 16.0627 0.937258C15.4626 0.337142 14.6487 0 13.8 0C12.9513 0 12.1374 0.337142 11.5373 0.937258C10.9371 1.53737 10.6 2.35131 10.6 3.2C10.6 4.04869 10.9371 4.86263 11.5373 5.46274C12.1374 6.06286 12.9513 6.4 13.8 6.4Z" ></path>
    <path d="M1 9.77783L7.22222 16.0001M7.22222 9.77783L1 16.0001" stroke="white" stroke-linecap="round" stroke-linejoin="round"></path>
  </symbol>
  <symbol  xmlns="http://www.w3.org/2000/svg" viewBox="0 0 78.369 78.369" id="tick">
    <g>
      <path d="M78.049,19.015L29.458,67.606c-0.428,0.428-1.121,0.428-1.548,0L0.32,40.015c-0.427-0.426-0.427-1.119,0-1.547l6.704-6.704
		c0.428-0.427,1.121-0.427,1.548,0l20.113,20.112l41.113-41.113c0.429-0.427,1.12-0.427,1.548,0l6.703,6.704
		C78.477,17.894,78.477,18.586,78.049,19.015z"/>
    </g>
  </symbol>
  <symbol  xmlns="http://www.w3.org/2000/svg" viewBox="0 0 18 18" id="football">
    <path d="M17.9827 9.59312C17.987 9.55862 17.987 9.52372 17.9827 9.48922C17.9913 9.32472 18 9.16887 18 9.00437C18.003 6.95269 17.3002 4.96246 16.0096 3.36803C15.9796 3.3113 15.9383 3.26123 15.8885 3.22084C14.9344 2.07981 13.7123 1.19332 12.3317 0.640763L12.2365 0.606131C10.1544 -0.202044 7.84555 -0.202044 5.76346 0.606131L5.66827 0.640763C4.2877 1.19332 3.06564 2.07981 2.11155 3.22084C2.06166 3.26123 2.02045 3.3113 1.99039 3.36803C0.699801 4.96246 -0.00301448 6.95269 9.71915e-06 9.00437C9.71915e-06 9.16887 0.00866362 9.32472 0.0173175 9.48922C0.0129735 9.52372 0.0129735 9.55862 0.0173175 9.59312C0.117122 11.0808 0.583924 12.5205 1.37597 13.7836C1.40259 13.8358 1.43449 13.8851 1.47116 13.9308C2.68752 15.7882 4.54527 17.132 6.68943 17.7056H6.71539C8.2132 18.0981 9.7868 18.0981 11.2846 17.7056H11.3106C13.4547 17.132 15.3125 15.7882 16.5288 13.9308C16.5655 13.8851 16.5974 13.8358 16.624 13.7836C17.4161 12.5205 17.8829 11.0808 17.9827 9.59312ZM3.85097 8.06065L4.99327 8.43295L6.09231 11.8269L5.39135 12.7966H2.39712C1.86826 11.8862 1.53795 10.8741 1.42789 9.82688L3.85097 8.06065ZM14.149 8.06065L16.5721 9.82688C16.462 10.8741 16.1317 11.8862 15.6029 12.7966H12.6086L11.9077 11.8269L13.0067 8.43295L14.149 8.06065ZM14.6423 3.89616L13.7163 6.74464L12.574 7.11693L9.69231 5.01304V3.81824L12.1154 2.05201C13.0774 2.48298 13.9383 3.11125 14.6423 3.89616ZM5.88462 2.05201L8.30769 3.81824V5.01304L5.42596 7.11693L4.28366 6.74464L3.3577 3.89616C4.06168 3.11125 4.92256 2.48298 5.88462 2.05201ZM7.44231 16.4589L6.51635 13.6104L7.21731 12.6407H10.7827L11.4837 13.6104L10.5577 16.4589C9.5308 16.6783 8.4692 16.6783 7.44231 16.4589Z" fill="#156246"></path>
  </symbol>
  <symbol  xmlns="http://www.w3.org/2000/svg" viewBox="0 0 16 12" id="betting-app">
    <path d="M10.0793 11.7806H1.26283C0.927909 11.7806 0.606703 11.6475 0.369876 11.4107C0.133049 11.1739 4.96503e-07 10.8527 0 10.5177V10.5177C0 10.191 0.129808 9.87758 0.360867 9.64652C0.591926 9.41546 0.90531 9.28565 1.23208 9.28565H10.1262C11.8756 9.28565 13.3874 7.94425 13.4689 6.19674C13.4893 5.75841 13.4207 5.32051 13.2671 4.90946C13.1136 4.49841 12.8783 4.12275 12.5755 3.80517C12.2727 3.4876 11.9086 3.23469 11.5054 3.06173C11.1021 2.88878 10.6679 2.79936 10.2291 2.79887H1.24499C1.08149 2.79887 0.9196 2.76667 0.768551 2.7041C0.617502 2.64154 0.480256 2.54983 0.364648 2.43422C0.24904 2.31861 0.157335 2.18137 0.0947684 2.03032C0.032202 1.87927 -2.45842e-07 1.71738 0 1.55388V1.55388C0 1.22238 0.131688 0.904455 0.366094 0.670049C0.6005 0.435643 0.918423 0.303955 1.24992 0.303955H10.2291C11.0004 0.304804 11.7635 0.460936 12.4731 0.763043C13.1827 1.06515 13.8242 1.50705 14.3593 2.06238C14.8944 2.61772 15.3123 3.27513 15.5879 3.99541C15.8635 4.71569 15.9913 5.4841 15.9636 6.25482C15.8506 9.36526 13.1917 11.7806 10.0793 11.7806Z" ></path>
    <path d="M9.80017 10.3035C11.4635 10.3035 12.911 9.09055 13.1196 7.46924C12.5506 8.50799 11.4159 9.20104 10.1585 9.20104L1.26431 9.20103C0.937538 9.20103 0.624155 9.33084 0.393095 9.5619C0.162036 9.79296 0.0322276 10.1063 0.0322266 10.4331V10.4331C0.0326361 10.5054 0.0392379 10.5776 0.0519599 10.6487C0.280998 10.4271 0.587294 10.3033 0.90602 10.3035H9.80017Z" ></path>
    <path d="M10.2614 0.219259H1.28218C1.10011 0.218216 0.920034 0.257188 0.75469 0.333421C0.589346 0.409653 0.44277 0.521284 0.32533 0.660416C0.20789 0.799549 0.122454 0.962786 0.0750638 1.13858C0.0276738 1.31438 0.0194875 1.49844 0.0510842 1.67775C0.28412 1.44927 0.597537 1.32141 0.923892 1.32168H9.90311C10.6743 1.32252 11.4375 1.47866 12.1471 1.78076C12.8566 2.08287 13.4981 2.52476 14.0333 3.0801C14.5684 3.63544 14.9862 4.29285 15.2619 5.01313C15.5375 5.73341 15.6653 6.50182 15.6376 7.27254C15.6255 7.59425 15.5855 7.9143 15.5181 8.22911C15.8079 7.57977 15.9701 6.88074 15.9958 6.17012C16.0236 5.3994 15.8958 4.631 15.6202 3.91071C15.3445 3.19043 14.9267 2.53302 14.3916 1.97769C13.8564 1.42235 13.2149 0.980452 12.5053 0.678346C11.7958 0.376239 11.0326 0.220107 10.2614 0.219259Z" ></path>
    <path d="M10.1047 4.91992H1.37246C0.683505 4.91992 0.125 5.47843 0.125 6.16738V6.16738C0.125 6.85633 0.683505 7.41484 1.37246 7.41484H10.1047C10.7936 7.41484 11.3521 6.85633 11.3521 6.16738C11.3521 5.47843 10.7936 4.91992 10.1047 4.91992Z" ></path>
    <path d="M10.1045 4.91992H1.37233C1.14975 4.9199 0.931218 4.97947 0.739438 5.09245C0.547657 5.20542 0.389619 5.36768 0.281738 5.56238C0.368403 5.54354 0.456825 5.53398 0.545512 5.53385H9.27771C9.49489 5.53377 9.70832 5.59041 9.89688 5.69816C10.0854 5.80591 10.2426 5.96104 10.3528 6.1482C10.463 6.33535 10.5223 6.54803 10.5251 6.76519C10.5278 6.98235 10.4738 7.19646 10.3683 7.38632C10.6692 7.32125 10.9354 7.1472 11.1157 6.89765C11.296 6.6481 11.3777 6.34069 11.3449 6.03457C11.3122 5.72845 11.1674 5.44525 10.9384 5.23948C10.7094 5.0337 10.4124 4.91988 10.1045 4.91992H10.1045Z" ></path>
  </symbol>
</svg>