<svg width="0" height="0" class="hidden">
  <symbol  xmlns="http://www.w3.org/2000/svg" viewBox="0 0 32 32" id="facebook">
    <path d="M30.72 0H1.28C0.572 0 0 0.572 0 1.28V30.72C0 31.428 0.572 32 1.28 32H30.72C31.428 32 32 31.428 32 30.72V1.28C32 0.572 31.428 0 30.72 0ZM27.024 9.34H24.468C22.464 9.34 22.076 10.292 22.076 11.692V14.776H26.86L26.236 19.604H22.076V32H17.088V19.608H12.916V14.776H17.088V11.216C17.088 7.084 19.612 4.832 23.3 4.832C25.068 4.832 26.584 4.964 27.028 5.024V9.34H27.024Z"></path>
  </symbol>
  <symbol  xmlns="http://www.w3.org/2000/svg" viewBox="0 0 32 32" id="instagram">
    <path fill-rule="evenodd" clip-rule="evenodd" d="M0 0.75C0 0.335787 0.335786 0 0.75 0H31.25C31.6642 0 32 0.335786 32 0.75V31.25C32 31.6642 31.6642 32 31.25 32H0.75C0.335787 32 0 31.6642 0 31.25V0.75ZM25.2626 12.1822C25.2521 11.3976 25.1052 10.6208 24.8285 9.88651C24.5885 9.26715 24.222 8.70465 23.7523 8.23497C23.2826 7.76529 22.7201 7.39875 22.1008 7.15876C21.3759 6.88667 20.6102 6.73954 19.8361 6.72365C18.8395 6.6791 18.5235 6.66667 15.9936 6.66667C13.4638 6.66667 13.1395 6.66667 12.1501 6.72365C11.3764 6.73966 10.611 6.88678 9.88651 7.15876C9.26705 7.39858 8.70447 7.76506 8.23477 8.23477C7.76506 8.70447 7.39858 9.26705 7.15876 9.88651C6.88612 10.6108 6.73931 11.3764 6.72468 12.1501C6.68014 13.1478 6.66667 13.4638 6.66667 15.9936C6.66667 18.5235 6.66667 18.8467 6.72468 19.8371C6.74022 20.612 6.8863 21.3766 7.15876 22.1028C7.39898 22.7221 7.76574 23.2845 8.2356 23.754C8.70546 24.2235 9.26809 24.5898 9.88754 24.8295C10.6101 25.1126 11.3756 25.2702 12.1512 25.2957C13.1488 25.3403 13.4648 25.3537 15.9947 25.3537C18.5245 25.3537 18.8488 25.3537 19.8382 25.2957C20.6122 25.2805 21.378 25.1337 22.1028 24.8617C22.722 24.6214 23.2844 24.2547 23.754 23.7851C24.2237 23.3155 24.5903 22.7531 24.8306 22.1339C25.103 21.4087 25.2491 20.6442 25.2647 19.8682C25.3092 18.8716 25.3227 18.5556 25.3227 16.0247L25.3226 15.9899V15.9897C25.3206 13.4918 25.3203 13.1691 25.2626 12.1822ZM15.9874 20.7778C13.3415 20.7778 11.1981 18.6344 11.1981 15.9885C11.1981 13.3425 13.3415 11.1991 15.9874 11.1991C17.2576 11.1991 18.4758 11.7037 19.374 12.6019C20.2722 13.5 20.7768 14.7182 20.7768 15.9885C20.7768 17.2587 20.2722 18.4769 19.374 19.375C18.4758 20.2732 17.2576 20.7778 15.9874 20.7778ZM20.9674 12.1387C20.8207 12.1389 20.6754 12.1101 20.5399 12.054C20.4043 11.9979 20.2811 11.9157 20.1774 11.8119C20.0737 11.7082 19.9914 11.585 19.9353 11.4495C19.8793 11.3139 19.8505 11.1686 19.8506 11.0219C19.8506 10.8754 19.8795 10.7302 19.9356 10.5948C19.9917 10.4593 20.0739 10.3363 20.1775 10.2326C20.2812 10.129 20.4043 10.0467 20.5397 9.99064C20.6751 9.93454 20.8203 9.90567 20.9669 9.90567C21.1135 9.90567 21.2586 9.93454 21.3941 9.99064C21.5295 10.0467 21.6525 10.129 21.7562 10.2326C21.8599 10.3363 21.9421 10.4593 21.9982 10.5948C22.0543 10.7302 22.0831 10.8754 22.0831 11.0219C22.0831 11.6394 21.5838 12.1387 20.9674 12.1387ZM19.0989 15.9887C19.0989 17.7069 17.706 19.0997 15.9878 19.0997C14.2696 19.0997 12.8767 17.7069 12.8767 15.9887C12.8767 14.2705 14.2696 12.8776 15.9878 12.8776C17.706 12.8776 19.0989 14.2705 19.0989 15.9887Z" ></path>
  </symbol>
  <symbol  xmlns="http://www.w3.org/2000/svg" viewBox="0 0 32 32" id="pinterest">
    <path fill-rule="evenodd" clip-rule="evenodd" d="M0.75 0C0.335786 0 0 0.335787 0 0.75V31.25C0 31.6642 0.335787 32 0.75 32H31.25C31.6642 32 32 31.6642 32 31.25V0.75C32 0.335786 31.6642 0 31.25 0H0.75ZM7.52521 9.35996C7.17686 10.3206 7.00008 11.3499 7.00008 12.4394C6.99751 12.983 7.05511 13.5251 7.17166 14.054C7.27953 14.613 7.43263 15.1608 7.62919 15.6911C7.82631 16.2232 8.11719 16.7092 8.48576 17.1222C8.83304 17.5208 9.2721 17.8131 9.75828 17.9695C9.89866 18.0017 9.97924 18.0171 9.99874 18.0171C10.2041 18.0171 10.3744 17.7902 10.5187 17.3351C10.6577 16.88 10.7266 16.5117 10.7266 16.2288C10.7266 16.1364 10.6655 15.9823 10.5486 15.7667C10.4329 15.551 10.3055 15.3172 10.1703 15.0777C10.0338 14.834 9.90775 14.5049 9.79207 14.0918C9.67379 13.6773 9.6114 13.2488 9.6114 12.8049C9.6114 10.7925 10.2431 9.1331 11.4987 7.82795C12.753 6.51859 14.3193 5.86602 16.1923 5.86602C17.8392 5.86602 19.178 6.35055 20.2061 7.32521C21.2291 8.29987 21.7438 9.66104 21.7438 11.4073C21.7438 11.8834 21.7165 12.3848 21.6528 12.9155C21.593 13.4435 21.4969 14.005 21.3721 14.596C21.1305 15.7198 20.6809 16.7796 20.0502 17.7118C19.7606 18.1409 19.3829 18.4922 18.9466 18.7383C18.5034 18.9917 18.0264 19.1178 17.5116 19.1178C16.9444 19.1306 16.3948 18.9051 15.9792 18.489C15.558 18.0731 15.3475 17.5424 15.3475 16.908C15.3475 16.282 15.5528 15.3396 15.9662 14.0764C16.3795 12.8147 16.5849 11.8498 16.5849 11.1832C16.5849 10.5545 16.4289 10.0391 16.1091 9.63023C15.7907 9.21992 15.3462 9.01546 14.7729 9.01546C14.0243 9.01546 13.4068 9.38376 12.9181 10.1204C12.4307 10.8598 12.1876 11.6454 12.1876 12.4842C12.1876 13.5345 12.3384 14.3887 12.6361 15.0427C12.5711 15.3466 12.3293 16.373 11.9069 18.1179C11.4844 19.8642 11.1699 21.3164 10.971 22.4717C10.7682 23.6284 10.6655 24.6703 10.6655 25.5987C10.6655 25.9124 10.737 26.8619 10.8761 28.4485L11.0048 28.5997L11.1985 28.5255C11.5455 28.0214 11.8367 27.5831 12.0719 27.2162C12.3097 26.8396 12.5259 26.4477 12.7192 26.0426L13.1664 25.0988C13.3143 24.7508 13.4364 24.3907 13.5316 24.0219C13.672 23.5234 13.7682 23.1635 13.8202 22.9478C13.8331 22.8909 13.8503 22.8161 13.8717 22.7232C13.9319 22.4617 14.025 22.0573 14.1477 21.5096C14.2002 21.2839 14.2487 21.0744 14.2935 20.8809C14.3963 20.437 14.4794 20.078 14.5455 19.804C14.8158 20.3711 15.2656 20.8136 15.8921 21.1357C16.5186 21.4592 17.1529 21.6202 17.7885 21.6202C18.7029 21.6308 19.609 21.4318 20.4466 21.0363C21.2181 20.6724 21.9119 20.1414 22.4847 19.4763C23.0547 18.8004 23.5286 18.0373 23.8911 17.2119C24.2714 16.3591 24.5534 15.4595 24.7308 14.5329C24.9115 13.6059 24.9998 12.6578 24.9998 11.6888C24.9998 10.0727 24.6034 8.62336 23.8053 7.34201C23.0318 6.0823 21.9585 5.06955 20.6975 4.40963C19.4198 3.73745 18.042 3.39996 16.5615 3.39996C15.603 3.39894 14.6484 3.5312 13.7214 3.79346C12.8054 4.04952 11.9288 4.44765 11.1192 4.97538C10.33 5.48568 9.6108 6.11208 8.98229 6.83648C8.3525 7.57052 7.85803 8.42689 7.52521 9.35996Z" ></path>
  </symbol>
  <symbol  xmlns="http://www.w3.org/2000/svg" viewBox="0 0 32 32" id="twitter">
    <path d="M30.72 0H1.28C0.572 0 0 0.572 0 1.28V30.72C0 31.428 0.572 32 1.28 32H30.72C31.428 32 32 31.428 32 30.72V1.28C32 0.572 31.428 0 30.72 0ZM24.612 11.588C24.624 11.776 24.624 11.972 24.624 12.164C24.624 18.036 20.152 24.8 11.98 24.8C9.46 24.8 7.124 24.068 5.156 22.808C5.516 22.848 5.86 22.864 6.228 22.864C8.308 22.864 10.22 22.16 11.744 20.968C9.792 20.928 8.152 19.648 7.592 17.888C8.276 17.988 8.892 17.988 9.596 17.808C8.5909 17.6038 7.6875 17.0579 7.03927 16.2631C6.39103 15.4683 6.03795 14.4736 6.04 13.448V13.392C6.628 13.724 7.32 13.928 8.044 13.956C7.43537 13.5504 6.93623 13.0008 6.59084 12.3561C6.24546 11.7114 6.06449 10.9914 6.064 10.26C6.064 9.432 6.28 8.676 6.668 8.02C7.78361 9.39335 9.17572 10.5166 10.7539 11.3167C12.332 12.1168 14.0608 12.5758 15.828 12.664C15.2 9.644 17.456 7.2 20.168 7.2C21.448 7.2 22.6 7.736 23.412 8.6C24.416 8.412 25.376 8.036 26.232 7.532C25.9 8.56 25.204 9.428 24.28 9.976C25.176 9.88 26.04 9.632 26.84 9.284C26.236 10.172 25.48 10.96 24.612 11.588Z" ></path>
  </symbol>
  <symbol  xmlns="http://www.w3.org/2000/svg" viewBox="0 0 32 32" id="youtube">
    <path fill-rule="evenodd" clip-rule="evenodd" d="M0.75 0C0.335786 0 0 0.335787 0 0.75V31.25C0 31.6642 0.335787 32 0.75 32H31.25C31.6642 32 32 31.6642 32 31.25V0.75C32 0.335786 31.6642 0 31.25 0H0.75ZM25.5394 10.4371C25.8641 10.745 26.0994 11.135 26.2201 11.5659V11.565C26.5387 13.1795 26.6876 14.8229 26.6645 16.4683C26.6751 18.1069 26.526 19.7425 26.2193 21.3521C26.099 21.783 25.864 22.1731 25.5394 22.4809C25.2054 22.7981 24.7962 23.0251 24.3502 23.1403C21.5759 23.4503 18.7853 23.5898 15.994 23.558C15.994 23.558 9.33976 23.5581 7.64843 23.119C7.19693 22.999 6.78632 22.7724 6.45659 22.4586C6.12685 22.1449 5.88955 21.7565 5.76779 21.3308C5.46828 19.7186 5.32341 18.0841 5.33407 16.4479C5.32367 14.8102 5.46889 13.1752 5.76779 11.565C5.89222 11.1375 6.13041 10.7473 6.45925 10.4309C6.79393 10.1112 7.20243 9.87919 7.64843 9.75546C10.4191 9.44553 13.2062 9.30602 15.994 9.33774C15.994 9.33774 22.6811 9.33774 24.3502 9.77768C24.7962 9.8929 25.2054 10.1199 25.5394 10.4371ZM13.868 13.4056V19.491L19.4317 16.4488L13.868 13.4056Z" ></path>
  </symbol>
</svg>